<svg width="250" height="255" viewBox="0 0 250 255" fill="none" xmlns="http://www.w3.org/2000/svg">
<path d="M56.6826 1.92578C60.819 2.99818 68.597 5.66472 75.7871 6.38379C85.9881 7.40388 98.7512 10.4365 109.215 14.9502C114.435 17.2021 119.394 19.9539 123.204 23.2402C126.936 26.4592 130.316 30.8596 130.653 36.4229C131.169 44.9242 125.631 51.3339 118.524 55.7949C111.346 60.3011 101.228 63.7646 89.1758 66.333C85.4543 67.1261 83.6251 69.5179 79.2705 73.3887L74.2617 77.8408L70.2412 72.4795C69.2178 71.115 67.2818 68.6428 66.0039 67.2158C65.951 67.1965 65.8941 67.1743 65.832 67.1523C65.0199 66.8655 63.8311 66.5013 62.252 66.0488C59.0283 65.1252 54.9908 64.061 50.1035 62.6943C41.7201 60.35 31.4643 57.2858 23.0684 53.5908L6.63477 62.9971L0.507812 52.2959L22.5371 39.6855L25.4717 41.1191C33.1902 44.8886 43.9566 48.1709 53.4238 50.8184C57.9773 52.0917 62.4657 53.2824 65.6484 54.1943C67.2723 54.6596 68.7576 55.1083 69.9385 55.5254C70.5235 55.732 71.1448 55.9699 71.7188 56.2373C72.0764 56.4039 73.0596 56.8618 73.96 57.6973L74.1387 57.8701L74.5068 58.248C74.9342 58.6973 75.3992 59.2214 75.877 59.7783C78.6016 57.5325 82.1654 55.2187 86.6055 54.2725C98.0601 51.8313 106.562 48.7442 111.969 45.3506C117.447 41.9119 118.46 39.0722 118.345 37.1689C118.296 36.3741 117.728 34.8011 115.149 32.5771C112.649 30.4204 108.937 28.2594 104.331 26.2725C95.1417 22.3084 83.6272 19.561 74.5605 18.6543C69.3503 18.1333 63.6576 16.7079 59.4014 15.5225L57.4092 22.6406L53.9336 23.5098C52.6553 23.8294 47.8381 25.6884 41.7412 28.2588C35.8776 30.7308 29.5088 33.569 25.4893 35.5479L22.6846 36.9287L0.717773 25.4629L6.4248 14.5303L22.8857 23.123C26.9884 21.1971 32.1794 18.9078 36.9502 16.8965C40.7113 15.3109 44.5234 13.7619 47.3828 12.7139L50.8291 0.408203L56.6826 1.92578Z" fill="white"/>
<path d="M93.5596 125.925C95.2182 127.193 96.3393 128.987 97.0752 130.605C97.8669 132.347 98.4502 134.407 98.75 136.698C99.1983 140.125 99.0266 144.168 97.8828 148.66C99.85 149.902 102.123 151.3 104.461 152.769C106.42 153.999 108.389 155.259 110.086 156.428C111.688 157.531 113.393 158.784 114.598 159.988C116.08 161.47 119.213 164.124 121.436 168.061C123.769 172.194 125.06 177.428 124.885 184.664C124.933 184.745 125.042 184.897 125.266 185.128C125.543 185.415 125.902 185.721 126.368 186.078C126.603 186.258 126.829 186.424 127.098 186.622C127.335 186.797 127.66 187.038 127.962 187.279C128.714 187.881 129.757 188.703 130.757 189.486L133.291 191.466L135.46 193.152L135.655 195.894C135.895 199.256 135.595 204.384 133.918 209.403C132.242 214.419 128.894 220.136 122.468 223.119C116.437 225.919 112.563 227.374 109.566 230.62C106.933 233.473 104.457 238.484 104.457 249.512H92.126C92.126 236.648 95.0455 228.17 100.505 222.256C105.6 216.736 112.516 214.144 117.275 211.935C119.481 210.91 121.142 208.727 122.222 205.496C122.923 203.396 123.252 201.195 123.356 199.354C122.272 198.504 121.102 197.582 120.259 196.908C120.183 196.848 117.905 195.254 116.404 193.703C114.671 191.912 112.55 188.931 112.55 184.771V184.682L112.553 184.591C112.721 178.876 111.705 175.908 110.697 174.123C109.548 172.087 108.249 171.079 105.878 168.708C105.541 168.371 104.661 167.664 103.092 166.584C101.617 165.569 99.8285 164.421 97.9023 163.211C94.1969 160.884 89.7859 158.213 87.0488 156.297L83.084 153.521L84.8379 149.012C86.2652 145.342 86.6826 142.299 86.6426 139.997C71.5912 149.273 49.4375 163.312 40.1973 171.012C34.5102 175.751 31.6582 181.724 30.0928 187.267C29.3082 190.044 28.8608 192.667 28.5352 194.946C28.3317 196.371 28.281 196.85 28.1035 198.109C27.9799 198.986 27.815 200.084 27.5547 201.038C26.8098 203.769 25.164 206.204 23.6016 208.124C21.9654 210.134 20.0015 212.079 18.0703 213.832C14.2727 217.279 9.91762 220.573 7.75977 222.319L0 212.734C2.63509 210.601 6.32524 207.84 9.7832 204.701C11.4795 203.162 12.9462 201.682 14.0381 200.34C15.2037 198.908 15.5846 198.063 15.6582 197.793C15.6591 197.789 15.6668 197.758 15.6807 197.693C15.6958 197.622 15.7149 197.526 15.7373 197.399C15.7832 197.139 15.833 196.81 15.8926 196.388C15.9695 195.842 16.1874 194.18 16.3271 193.202C16.6879 190.677 17.228 187.447 18.2256 183.915C20.2247 176.837 24.1171 168.359 32.3027 161.538C43.8352 151.928 72.6433 134.061 86.6064 125.557L90.209 123.362L93.5596 125.925Z" fill="white"/>
<path d="M195.672 2.53418C200.82 3.08577 204.577 6.49714 207.106 9.73535C209.722 13.0847 211.815 17.2499 213.472 21.2266C216.774 29.152 218.952 37.9124 219.812 40.8369C219.798 40.7867 219.836 40.9177 220.005 41.2959C220.161 41.6451 220.382 42.1024 220.678 42.6719C221.27 43.8118 222.087 45.2601 223.101 46.9668C225.124 50.3734 227.831 54.6298 230.872 59.1777C236.982 68.3139 244.245 78.3335 249.793 84.8066L240.43 92.8311C234.418 85.8168 226.843 75.3351 220.622 66.0322C217.498 61.3607 214.665 56.9124 212.498 53.2646C211.417 51.4445 210.474 49.7788 209.736 48.3584C209.058 47.054 208.358 45.5925 207.982 44.3164C206.916 40.6899 205.049 33.072 202.089 25.9688C201.175 23.7764 200.216 21.7861 199.229 20.0908C199.049 21.3439 198.913 22.4715 198.855 23.333C198.537 28.1162 196.818 38.4444 196.126 44.0967L195.647 48.002L191.903 49.2129C187.247 50.7193 178.545 53.0325 168.336 57.7969C165.278 59.2241 160.324 62.0646 151.838 77.1914L151.303 78.1455L150.474 78.8564C148.312 80.7095 146.248 81.6173 144.12 82.3057C143.171 82.6128 142.096 82.9102 141.114 83.1914C140.079 83.4881 138.945 83.822 137.62 84.2637C134.721 85.2299 131.765 86.1066 128.928 86.9551C126.055 87.8143 123.284 88.65 120.578 89.5752C116.479 90.9764 112.7 92.5283 109.29 94.4961C110.26 98.0326 112.509 103.592 116.772 109.479C123.984 119.438 133.483 123.498 140.514 122.416C145.175 121.699 150.84 120.665 155.346 120.042C157.691 119.718 160.005 119.46 162.104 119.37C164.111 119.284 166.357 119.325 168.38 119.831C169.79 120.184 174.806 120.588 180.158 124.666C185.359 128.629 190.795 135.739 196.76 148.662C208.19 173.429 216.362 201.2 221.391 219.769C224.907 232.753 234.506 241.745 238.48 244.36L231.703 254.662C225.915 250.854 213.986 239.602 209.487 222.992C204.497 204.567 196.543 177.618 185.563 153.83C179.968 141.706 175.577 136.678 172.686 134.475C169.945 132.387 168.602 132.597 165.389 131.794C165.099 131.722 164.262 131.619 162.634 131.689C161.096 131.756 159.218 131.956 157.035 132.258C152.486 132.887 147.746 133.78 142.389 134.604C129.381 136.606 115.758 129.103 106.785 116.712C99.8244 107.099 96.5491 97.1488 96.3682 91.7217L96.2578 88.4189L98.9463 86.499C104.533 82.5084 110.669 79.9312 116.589 77.9072C119.551 76.8945 122.536 75.9955 125.395 75.1406C128.29 74.2749 131.043 73.4571 133.721 72.5645C135.286 72.0428 136.61 71.6544 137.718 71.3369C138.88 71.004 139.636 70.7959 140.324 70.5732C140.978 70.3616 141.402 70.1877 141.745 69.9941C150.642 54.4408 157.079 49.4425 163.121 46.623C171.662 42.6374 179.426 40.1566 184.413 38.623C185.255 32.6051 186.308 26.1552 186.551 22.5127C186.731 19.8104 187.372 15.9282 187.907 12.9639C188.184 11.4295 188.451 10.0467 188.648 9.04785C188.747 8.54771 188.829 8.14174 188.887 7.85938C188.915 7.71827 188.937 7.6074 188.953 7.53125C188.961 7.4933 188.967 7.46382 188.972 7.44336C188.974 7.43339 188.975 7.42557 188.977 7.41992C188.977 7.41721 188.978 7.41475 188.979 7.41309V7.41016L190.116 1.93945L195.672 2.53418Z" fill="white"/>
</svg>
